<svg width="28" height="30" viewBox="0 0 28 30" fill="none" xmlns="http://www.w3.org/2000/svg">
<path d="M2.1875 10.1907V27.6477C2.1875 28.2 2.63522 28.6477 3.1875 28.6477H24.8125C25.3648 28.6477 25.8125 28.2 25.8125 27.6477V10.1907M2.1875 10.1907H25.8125M2.1875 10.1907V7.97583M25.8125 10.1907V7.97583M21.3828 5.76099H24.8125C25.3648 5.76099 25.8125 6.2087 25.8125 6.76099V7.97583M21.3828 5.76099V1.3313M21.3828 5.76099H6.61719M6.61719 5.76099H3.1875C2.63522 5.76099 2.1875 6.2087 2.1875 6.76099V7.97583M6.61719 5.76099V1.3313M2.1875 7.97583H25.8125" stroke="#333333" stroke-width="2.5" stroke-linecap="round"/>
</svg>
