<svg xmlns="http://www.w3.org/2000/svg" width="83" height="92" fill="none"><path stroke="#516287" stroke-linecap="round" stroke-width="6" d="M54 18.4c4.3-1.2 13-.3 13 12.6"/><mask id="a" fill="#fff"><path fill-rule="evenodd" d="M5.7 50.4c0-.8.2-1.7.4-2.4l.1-.6C3 42.4 1 36.8 0 30.9a3.8 3.8 0 0 1 7.1-2.5c.3.4.4.9.5 1.4.8 5.2 2.8 10.2 5.8 14.6a3.8 3.8 0 0 1 .6 3.1 41 41 0 0 0 8.3 35.9c.2.3.5.5.9.6a1.7 1.7 0 0 0 1.6-.3 2.8 2.8 0 0 0 1.1-2.4c-.7-7 1.3-14 5.6-19.5a13.5 13.5 0 0 1 9.7-5 13.5 13.5 0 0 1 9.7 5 26.8 26.8 0 0 1 5.5 19.6 2.8 2.8 0 0 0 1 2.5 1.7 1.7 0 0 0 1.7.2c.4-.1.8-.4 1-.7 4-4.6 7-10.1 8.4-16a41 41 0 0 0 0-19.9 3.8 3.8 0 0 1 .6-3 35 35 0 0 0 6.2-18.6 18 18 0 0 0-7.6-16 12.8 12.8 0 0 0-14-.5l-.3.2c-1.3.7-2.6 1.5-3.8 2.4a14 14 0 0 1-16.7 0c-1.2-.9-2.4-1.7-3.7-2.4l-.4-.2-1-.5a12.7 12.7 0 0 0-11.1 0 16.5 16.5 0 0 0-8.9 11 3.8 3.8 0 0 1-7 1.1 3.8 3.8 0 0 1-.3-2.9 24.3 24.3 0 0 1 12.9-16A20.4 20.4 0 0 1 31 2l1.7.8c1.6.9 3.2 1.9 4.7 3a6.4 6.4 0 0 0 7.8 0c1.5-1.1 3-2.1 4.7-3l1.7-.8A20.3 20.3 0 0 1 72 3.5a25.4 25.4 0 0 1 11 22.8v.2a43 43 0 0 1-6.6 20.8c0 .6 0 1.2.2 1.8l.2 1.2.2 4.2.2 4.1c-.1 11-4.1 21.7-11.3 30.1a9.7 9.7 0 0 1-3.8 2.7 9.4 9.4 0 0 1-8.7-1.2 10.5 10.5 0 0 1-4.6-9c.5-5-.7-10-3.6-14.2-.8-.9-2.4-2.6-4-2.6-1.8 0-3.3 1.7-4.2 2.6-3 4.1-4.3 9.2-3.8 14.2A10.6 10.6 0 0 1 29 90a9.5 9.5 0 0 1-8.7 1.2 9.6 9.6 0 0 1-3.8-2.7 47.2 47.2 0 0 1-11.3-30l.5-8Z" clip-rule="evenodd"/></mask><path fill="#516287" fill-rule="evenodd" stroke="#516287" stroke-width="2" d="M5.7 50.4c0-.8.2-1.7.4-2.4l.1-.6C3 42.4 1 36.8 0 30.9a3.8 3.8 0 0 1 7.1-2.5c.3.4.4.9.5 1.4.8 5.2 2.8 10.2 5.8 14.6a3.8 3.8 0 0 1 .6 3.1 41 41 0 0 0 8.3 35.9c.2.3.5.5.9.6a1.7 1.7 0 0 0 1.6-.3 2.8 2.8 0 0 0 1.1-2.4c-.7-7 1.3-14 5.6-19.5a13.5 13.5 0 0 1 9.7-5 13.5 13.5 0 0 1 9.7 5 26.8 26.8 0 0 1 5.5 19.6 2.8 2.8 0 0 0 1 2.5 1.7 1.7 0 0 0 1.7.2c.4-.1.8-.4 1-.7 4-4.6 7-10.1 8.4-16a41 41 0 0 0 0-19.9 3.8 3.8 0 0 1 .6-3 35 35 0 0 0 6.2-18.6 18 18 0 0 0-7.6-16 12.8 12.8 0 0 0-14-.5l-.3.2c-1.3.7-2.6 1.5-3.8 2.4a14 14 0 0 1-16.7 0c-1.2-.9-2.4-1.7-3.7-2.4l-.4-.2-1-.5a12.7 12.7 0 0 0-11.1 0 16.5 16.5 0 0 0-8.9 11 3.8 3.8 0 0 1-7 1.1 3.8 3.8 0 0 1-.3-2.9 24.3 24.3 0 0 1 12.9-16A20.4 20.4 0 0 1 31 2l1.7.8c1.6.9 3.2 1.9 4.7 3a6.4 6.4 0 0 0 7.8 0c1.5-1.1 3-2.1 4.7-3l1.7-.8A20.3 20.3 0 0 1 72 3.5a25.4 25.4 0 0 1 11 22.8v.2a43 43 0 0 1-6.6 20.8c0 .6 0 1.2.2 1.8l.2 1.2.2 4.2.2 4.1c-.1 11-4.1 21.7-11.3 30.1a9.7 9.7 0 0 1-3.8 2.7 9.4 9.4 0 0 1-8.7-1.2 10.5 10.5 0 0 1-4.6-9c.5-5-.7-10-3.6-14.2-.8-.9-2.4-2.6-4-2.6-1.8 0-3.3 1.7-4.2 2.6-3 4.1-4.3 9.2-3.8 14.2A10.6 10.6 0 0 1 29 90a9.5 9.5 0 0 1-8.7 1.2 9.6 9.6 0 0 1-3.8-2.7 47.2 47.2 0 0 1-11.3-30l.5-8Z" clip-rule="evenodd" mask="url(#a)"/></svg>